<svg width="473" height="479" viewBox="0 0 473 479" fill="none" xmlns="http://www.w3.org/2000/svg">
    <path d="M433.926 281.719C453.999 281.719 471.591 267.108 472.184 246.765C473.387 205.464 464.011 164.207 444.517 127.183C416.079 73.1723 368.278 32.2905 310.977 12.9731C253.675 -6.34426 191.247 -2.62313 136.572 23.3686C81.8983 49.3603 39.1508 95.6393 17.1508 152.656C-4.84922 209.673 -4.423 273.077 18.3415 329.784C41.106 386.491 84.4717 432.175 139.49 457.409C194.509 482.643 256.982 485.501 314.018 465.393C362.73 448.22 404.301 415.416 432.66 372.319C439.131 362.484 431.745 349.987 420.085 349.987H345.533C329.236 366.531 309.336 379.299 287.172 387.113C249.919 400.246 209.115 398.379 173.18 381.898C137.245 365.417 108.921 335.579 94.0526 298.54C79.1841 261.502 78.9057 220.09 93.2749 182.85C107.644 145.61 135.564 115.383 171.275 98.4069C206.985 81.4305 247.76 79.0001 285.186 91.6172C322.612 104.234 353.833 130.936 372.407 166.213C378.076 176.979 382.363 188.464 385.285 200.322H294.161C281.335 181.298 259.768 168.813 235.325 168.813C195.993 168.813 164.107 201.142 164.107 241.02C164.107 280.899 195.993 313.227 235.325 313.227C259.768 313.227 281.335 300.742 294.161 281.719H433.926Z"
          fill="#E8143E"/>
</svg>
