<svg xmlns="http://www.w3.org/2000/svg" xmlns:xlink="http://www.w3.org/1999/xlink" viewBox="0 0 142 56" fill="red">
    <path d="M71 0a27 27 0 0 0-22.62 41.68h1.28a26.05 26.05 0 0 1 3-33 25.7 25.7 0 0 1 36.49 0 26.05 26.05 0 0 1 3 33h1.28A27 27 0 0 0 71 0zM47.21 27.05a23.88 23.88 0 0 0 5 14.63h2.3a22.2 22.2 0 0 1 .94-30.27 21.91 21.91 0 0 1 31.11 0 22.2 22.2 0 0 1 .94 30.27h2.3a23.83 23.83 0 1 0-42.59-14.63zm3.27-.05a20.54 20.54 0 0 0 6.17 14.7h4.48a17.75 17.75 0 0 1-2.65-27.21 17.53 17.53 0 0 1 24.88 0 17.76 17.76 0 0 1 0 25 17.8 17.8 0 0 1-2.65 2.19h4.48A20.49 20.49 0 1 0 50.48 27zm5.33 0a15.16 15.16 0 0 0 15.1 15.19A15 15 0 0 0 81 38.31a11.86 11.86 0 0 0 2.29-2.59l.24-.37c.41-.58.23-1.51-.92-1.51h-4.69a9.79 9.79 0 1 1 2.38-9.59h-5.75a4.56 4.56 0 1 0 .06 5.36h7.91c1.78 0 2.29-.15 2.79-.65A2.78 2.78 0 0 0 86 27a15.1 15.1 0 1 0-30.21 0zm40.33 17.46a1.61 1.61 0 0 0-.61.37 1.84 1.84 0 0 0-.42.66 2.62 2.62 0 0 0-.16 1v9.37h3.16v-6.68l6.89 6.21a1.81 1.81 0 0 0 1.4.61 2.27 2.27 0 0 0 .72-.12 1.55 1.55 0 0 0 .61-.38 1.94 1.94 0 0 0 .42-.67 2.62 2.62 0 0 0 .16-1v-9.31h-3.18v6.63l-6.89-6.21a2.22 2.22 0 0 0-.75-.5 2 2 0 0 0-.65-.11 2.2 2.2 0 0 0-.7.13zm20.65.07a8.87 8.87 0 0 0-2.71.4 6.45 6.45 0 0 0-2.14 1.13 5.33 5.33 0 0 0-1.41 1.76 5 5 0 0 0-.51 2.25 5.16 5.16 0 0 0 .51 2.29 5.59 5.59 0 0 0 1.41 1.82 6.69 6.69 0 0 0 2.14 1.21 8.08 8.08 0 0 0 2.71.44h5.65l2.24-2.9h-7.88a4.27 4.27 0 0 1-1.31-.19 3.28 3.28 0 0 1-1.05-.55 2.54 2.54 0 0 1-.68-3.07 2.66 2.66 0 0 1 .69-.87 3.2 3.2 0 0 1 1-.57 4.11 4.11 0 0 1 1.31-.2h5.65l2.24-2.94zm-36 0v11.28h10.79l2.24-2.9h-9.57v-1.53h6.91l2-2.57h-8.91v-1.35h7.28l2.25-2.94zm-15 0l-2.27 2.94h9.78a2.57 2.57 0 0 1 1.41.33 1.1 1.1 0 0 1 .5 1 1 1 0 0 1-.55.93 2.57 2.57 0 0 1-1.36.27h-9.78v5.77H67v-3h5.35l2.51 3h4.66l-2.07-2.19-.94-.93a8.11 8.11 0 0 0-.64-.56 3.78 3.78 0 0 0 1.24-.46 3.45 3.45 0 0 0 .92-.8 3.5 3.5 0 0 0 .58-1.06 3.84 3.84 0 0 0 .2-1.25 3.38 3.38 0 0 0-.55-2 4 4 0 0 0-1.39-1.23A6.06 6.06 0 0 0 75 44.7a11.67 11.67 0 0 0-2-.18zm-17.2 0l-2.27 2.94h9.78a2.57 2.57 0 0 1 1.41.33 1.1 1.1 0 0 1 .5 1 1 1 0 0 1-.56.93 2.57 2.57 0 0 1-1.35.27h-9.78v5.77h3.48v-3h5.35l2.51 3h4.66l-2.07-2.19-.94-.93a8.06 8.06 0 0 0-.64-.56 3.78 3.78 0 0 0 1.24-.46 3.45 3.45 0 0 0 .92-.8 3.49 3.49 0 0 0 .58-1.06 3.85 3.85 0 0 0 .2-1.25 3.38 3.38 0 0 0-.55-2 4 4 0 0 0-1.39-1.23 6 6 0 0 0-1.87-.63 11.66 11.66 0 0 0-2-.18zm-7.7 0v6.36a2.62 2.62 0 0 1-.18 1 1.54 1.54 0 0 1-.58.69 2.8 2.8 0 0 1-1.08.39 10 10 0 0 1-1.68.12 17.53 17.53 0 0 1-2.18-.09 3.65 3.65 0 0 1-1.3-.37 1.37 1.37 0 0 1-.63-.68 2.84 2.84 0 0 1-.17-1v-6.43h-3.47v6.36a5.24 5.24 0 0 0 .45 2.24 3.91 3.91 0 0 0 1.4 1.59 6.93 6.93 0 0 0 2.41 1 16.56 16.56 0 0 0 3.5.32q7 0 7-5.11v-6.4zm-20.21 0a8.87 8.87 0 0 0-2.71.4 6.45 6.45 0 0 0-2.14 1.13 5.33 5.33 0 0 0-1.41 1.76 5 5 0 0 0-.51 2.25 5.16 5.16 0 0 0 .51 2.29 5.59 5.59 0 0 0 1.41 1.82 6.69 6.69 0 0 0 2.17 1.2 8.08 8.08 0 0 0 2.71.44h5.65l2.24-2.9h-7.92a4.27 4.27 0 0 1-1.31-.19 3.28 3.28 0 0 1-1.05-.55 2.54 2.54 0 0 1-.68-3.07 2.65 2.65 0 0 1 .69-.87 3.2 3.2 0 0 1 1-.57 4.11 4.11 0 0 1 1.31-.2h5.65l2.24-2.94zM0 44.52v11.29h10.83l2.24-2.9H3.5v-1.53h6.91l2-2.57H3.5v-1.35h7.28L13 44.52zm137.63.09l-2.56 3.12-.92 1.15q-.32.4-.49.64l-.29-.35-.44-.51-.45-.51-.35-.4-2.69-3.14H125l6.86 7.54v3.75h3.5v-3.72l6.64-7.56z"/>
</svg>
